<?xml version="1.0" encoding="UTF-8"?>
<svg id="Layer_1" data-name="Layer 1" xmlns="http://www.w3.org/2000/svg" viewBox="0 0 1504.05 404.81">
  <defs>
    <style>
      .cls-1 {
        fill: #fff;
      }

      .cls-2 {
        fill: #3875ff;
      }
    </style>
  </defs>
  <g>
    <path class="cls-2" d="M157.4,150.26h-66.87c-3.24,0-6.36-1.19-8.77-3.35L4.42,77.83c-9.02-8.05-3.32-22.99,8.77-22.99h75.13c3.49,0,6.84,1.39,9.31,3.86l69.08,69.07c8.3,8.3,2.42,22.48-9.31,22.48Z"/>
    <path class="cls-2" d="M406.86,150.26h-109c-7.27,0-13.17,5.9-13.17,13.17v86.71c0,2.96-1,5.83-2.83,8.15l-69.08,87.65c-7.73,9.82-23.51,4.35-23.51-8.15v-187.54h-.01l-.03.03-.03-.03h.07l91.56-91.56c2.47-2.47,5.82-3.86,9.31-3.86h39.39c3.24,0,6.36,1.19,8.77,3.35l77.34,69.07c9.02,8.06,3.32,22.99-8.77,22.99Z"/>
  </g>
  <path class="cls-1" d="M586.52,0h-37.63c-12.47,12.27-19.58,19.25-32.05,31.52l-.3,17.98v139.1c1,3.3,2.38,6.05,4.18,8.19,5.07,6.09,12.69,9.85,22.85,11.27,6.7.81,14.32,1.22,22.85,1.22h14.55c12.52-12.52,19.54-19.54,32.05-32.05v-13.64h-8.53c-9.55,0-15.13-2.64-16.76-7.92-.61-1.83-.91-3.85-.91-6.09v-53.31h26.2v-41.73h-26.5V0Z"/>
  <path class="cls-1" d="M862.51,109.06c-3.46-12.79-9.95-24.27-19.5-34.42-19.91-20.91-51.69-31.38-95.35-31.38-35.75-.2-63.67,6.7-83.77,20.72-6.3,4.47-11.78,9.55-16.45,15.23-10.77,13.61-16.15,29.75-16.15,48.44s5.58,36.05,16.75,49.65c19.9,24.37,52.9,36.56,99,36.56,30.26,0,55.54-4.87,75.85-14.62,6.7-3.25,11.88-6.5,15.54-9.75,10.15-7.72,17.87-16.86,23.15-27.42l-74.94-3.66c-2.44,2.44-4.67,4.37-6.7,5.79-7.92,5.89-17.77,8.83-29.55,8.83-3.66,0-7.57-.41-11.73-1.22-4.16-.81-9.4-3.14-15.69-7.01-6.3-3.86-10.97-9.14-14.01-15.84-1.63-3.66-2.74-7.11-3.35-10.36h160.23c-.41-12.99-1.52-22.85-3.35-29.55ZM708.07,110.58c2.23-5.28,4.47-9.34,6.7-12.19,7.71-9.14,19.19-13.71,34.42-13.71,21.12,0,34.83,8.63,41.12,25.89h-82.25Z"/>
  <path class="cls-1" d="M963.34,73.41v-25.59h-39.84c-12.52,12.52-19.54,19.54-32.05,32.05v129.4h39.53c12.52-12.52,19.54-19.54,32.05-32.05v-40.14c0-6.29.91-11.27,2.74-14.93,4.06-8.53,12.59-13.3,25.59-14.32,4.47-.41,8.02-.61,10.66-.61,3.66,0,9.34.41,17.06,1.22v-63.67c-7.11.2-12.79.81-17.06,1.83-17.26,4.47-30.16,13.4-38.69,26.81Z"/>
  <path class="cls-1" d="M1166.83,43.87c-19.09,0-35.03,4.07-47.83,12.19-3.05,1.83-6.6,4.47-10.66,7.92v-16.15h-39.23c-12.52,12.52-19.54,19.54-32.05,32.05v185.75h39.23c12.52-12.52,19.54-19.54,32.05-32.05v-37.71c5.28,3.66,9.75,6.55,13.4,8.68,3.65,2.13,9.75,4.42,18.28,6.85,8.53,2.44,17.56,3.66,27.11,3.66,32.09,0,56.36-11.27,72.81-33.81,10.56-14.21,15.84-31.27,15.84-51.18,0-25.38-7.62-45.79-22.85-61.23-16.65-16.65-38.69-24.98-66.1-24.98ZM1166.52,160.23c-5.48,3.25-12.19,4.88-20.11,4.88-3.46,0-7.01-.35-10.66-1.07-3.66-.71-8.07-2.89-13.25-6.55-5.18-3.65-8.99-8.63-11.42-14.93-1.83-4.67-2.74-9.34-2.74-14.01,0-3.25.5-6.6,1.52-10.05,1.01-3.45,2.69-7.16,5.03-11.12,2.33-3.96,6.04-7.31,11.12-10.05,5.07-2.74,11.07-4.31,17.97-4.72,10.56-.61,19.29,1.93,26.2,7.62,8.53,6.7,12.79,16.14,12.79,28.33,0,14.83-5.48,25.39-16.45,31.68Z"/>
  <path class="cls-1" d="M1495.21,185.82v-84.38c0-17.06-4.37-29.95-13.1-38.69-6.7-6.9-18.48-12.18-35.34-15.84-15.64-3.05-35.14-4.57-58.49-4.57-35.14,0-61.03,4.26-77.68,12.79-15.23,7.92-24.67,22.24-28.33,42.95h69.15c1.01-2.64,2.03-4.47,3.05-5.48,5.89-6.09,17.97-9.14,36.25-9.14,15.84,0,26.3,3.25,31.38,9.75,2.23,3.05,3.35,7.42,3.35,13.1-57.47,1.22-94.74,4.37-111.8,9.44-3.86,1.02-8.83,3.1-14.93,6.24-6.09,3.15-11.07,7.46-14.93,12.95-5.48,7.51-8.23,16.55-8.23,27.11,0,14.22,5.79,26.4,17.36,36.55,11.58,10.16,29.44,15.23,53.61,15.23s49.85-6.7,80.12-20.11c.4,4.47,1.32,9.65,2.74,15.54h74.63c-3.25-3.05-5.53-6.04-6.85-8.99-1.32-2.94-1.98-7.77-1.98-14.47ZM1418.75,153.23c-2.44,2.85-6.4,5.89-11.88,9.14-10.77,5.89-21.93,8.83-33.51,8.83s-18.99-3.05-22.85-9.14c-1.42-2.23-2.13-4.57-2.13-7.01,0-3.66,1.11-6.6,3.35-8.83,3.45-4.27,12.39-7.01,26.81-8.23,4.67-.41,9.7-.76,15.08-1.07,5.38-.3,11.32-.61,17.82-.91,6.5-.3,11.47-.56,14.93-.76-1.63,8.13-4.16,14.12-7.62,17.97Z"/>
  <g>
    <path class="cls-1" d="M620.04,349.93c-1.6-.8-3.6-1.55-5.94-2.25-2.4-.71-4.61-1.24-6.57-1.59-2-.35-5.02-.72-8.98-1.08-4.13-.37-7.17-.63-9.29-.77-2.12-.14-6.15-.37-11.97-.67-5.88-.3-10.15-.52-12.83-.67-11-.46-18.3-1.22-22.28-2.34l-.12-.04c-7.58-2.47-11.87-7.81-12.41-15.46v-.22c0-4.85,1.88-9.2,5.59-12.91,6.89-7.06,19.29-10.5,37.87-10.5,7.45,0,15.3.81,23.33,2.4,8.37,1.66,14.84,4.4,19.25,8.15,1.22,1.07,2.56,2.78,4.17,5.33l9.95-2.05c-2.11-3.46-4.61-6.38-7.46-8.72-2.85-2.3-6.55-4.39-11-6.2-9.64-3.68-22.23-5.56-37.36-5.56-16.77,0-29.54,2.27-37.96,6.76-10.28,5.41-15.27,13.47-15.27,24.63,0,3.43.59,6.58,1.76,9.37,1.14,2.73,2.62,4.88,4.39,6.41,2.03,1.75,3.82,3.12,5.31,4.07,1.44.92,2.88,1.64,4.29,2.15,2.49.97,5.65,1.69,9.47,2.18,3.97.51,7.87.88,11.6,1.09,3.8.22,9.18.49,15.99.78,6.98.3,13.21.68,18.51,1.12,8.21.45,14.28,1.22,18.47,2.32,4.53,1.2,8.16,3.32,10.8,6.31,2.59,2.97,3.9,6.36,3.9,10.1,0,6.21-3.19,11.77-9.49,16.54l-.15.11c-8.51,5.67-21.09,8.55-37.39,8.55-13.85,0-25.56-1.87-34.81-5.57-6.53-2.77-11.49-6.6-14.79-11.38-.56-.84-1.09-1.72-1.59-2.64l-10.2,2.27c.07.13.15.24.21.33l.17.24.13.27c.77,1.66,1.96,3.44,3.54,5.29l.09.11c9.43,12.06,28.98,18.18,58.13,18.18,18,0,31.96-3.2,41.49-9.5,8.95-5.96,13.3-13.49,13.3-23,0-10.09-4.53-17.26-13.86-21.92Z"/>
    <path class="cls-1" d="M761.81,308.54c-10.82-8.85-25.63-13.63-43.99-14.2-.39,0-.79,0-1.18,0-14.47,0-26.93,2.51-37,7.48-13.31,6.45-22.45,16.21-27.18,29.02-2.23,6.28-3.37,12.67-3.37,18.96,0,10.89,3.04,20.86,9.03,29.65,8.67,12.58,22.08,20.61,39.86,23.86,5.18,1,10.82,1.51,16.81,1.51,14.68,0,26.92-2.64,36.36-7.85,9.48-5.23,16.69-11.36,21.44-18.2,5.68-8.45,8.57-17.91,8.57-28.07,0-6.15-1.4-13.3-4.17-21.25-2.69-7.73-7.8-14.76-15.19-20.9ZM759.94,380.81c-10.39,11.81-25.65,17.79-45.37,17.79-8.8,0-17.38-1.53-25.49-4.54-8.34-3.1-15.07-7.98-20.01-14.53-6.32-8.06-9.55-18-9.55-29.52,0-17.53,6.92-31,20.57-40.04,9.97-6.54,21.39-9.87,33.96-9.88,3-.15,6.34.05,9.91.59,3.53.54,8.07,1.58,13.51,3.09,5.75,1.6,11.31,4.57,16.52,8.84,5.24,4.28,9.42,9.67,12.43,16.01,3.01,6.18,4.54,13.31,4.54,21.18,0,12.16-3.71,22.6-11.02,31.02Z"/>
    <rect class="cls-1" x="804.38" y="250.67" width="8.43" height="151.02"/>
    <path class="cls-1" d="M953.2,360.27c0,6.99-1.53,12.82-4.54,17.34-4.72,6.99-12.41,12.1-22.89,15.19-10.05,2.97-20.09,4.47-29.85,4.47-17.96,0-30.82-4.34-38.24-12.89-5.17-6-7.67-15.63-7.67-29.46v-57.02h-8.43v58.35c0,10.79,1.33,19.2,3.95,25,6.72,15.5,23.59,23.33,50.17,23.33,1.14,0,2.25-.06,3.37-.09l-.08.09s2.24-.05,5.88-.42c5.64-.48,10.97-1.41,15.99-2.79,10.83-2.7,23.45-7.66,32.34-16.76v17.08h8.21v-103.78h-8.21v62.36Z"/>
    <path class="cls-1" d="M1245.8,339.21c0-6.99,1.53-12.82,4.54-17.34,4.72-6.99,12.41-12.1,22.89-15.19,10.05-2.97,20.09-4.47,29.85-4.47,17.96,0,30.82,4.34,38.24,12.89,5.17,6,7.67,15.63,7.67,29.46v57.02h8.43v-58.35c0-10.79-1.33-19.2-3.95-25-6.72-15.5-23.59-23.33-50.17-23.33-1.14,0-2.25.06-3.37.09l.08-.09s-2.24.05-5.88.42c-5.64.48-10.97,1.41-15.99,2.79-10.83,2.7-23.45,7.66-32.34,16.76v-17.08h-8.21v103.78h8.21v-62.36Z"/>
    <rect class="cls-1" x="1051.23" y="297.9" width="8.43" height="15.11"/>
    <rect class="cls-1" x="1051.23" y="329.64" width="8.43" height="72.05"/>
    <path class="cls-1" d="M1195.13,308.54c-10.82-8.85-25.63-13.63-43.99-14.2-.39,0-.79,0-1.18,0-14.47,0-26.93,2.51-37,7.48-13.31,6.45-22.45,16.21-27.18,29.02-2.23,6.28-3.37,12.67-3.37,18.96,0,10.89,3.04,20.86,9.03,29.65,8.67,12.58,22.08,20.61,39.86,23.86,5.18,1,10.82,1.51,16.81,1.51,14.68,0,26.92-2.64,36.36-7.85,9.48-5.23,16.69-11.36,21.44-18.2,5.68-8.45,8.57-17.91,8.57-28.07,0-6.15-1.4-13.3-4.17-21.25-2.69-7.73-7.8-14.76-15.19-20.9ZM1193.27,380.81c-10.39,11.81-25.65,17.79-45.37,17.79-8.8,0-17.38-1.53-25.49-4.54-8.34-3.1-15.07-7.98-20.01-14.53-6.32-8.06-9.55-18-9.55-29.52,0-17.53,6.92-31,20.57-40.04,9.97-6.54,21.39-9.87,33.96-9.88,3-.15,6.34.05,9.91.59,3.53.54,8.07,1.58,13.51,3.09,5.75,1.6,11.31,4.57,16.52,8.84,5.24,4.28,9.42,9.67,12.43,16.01,3.01,6.18,4.54,13.31,4.54,21.18,0,12.16-3.71,22.6-11.02,31.02Z"/>
    <path class="cls-1" d="M1481.35,349.93c-1.6-.8-3.6-1.55-5.94-2.25-2.4-.71-4.62-1.24-6.57-1.59-2-.35-5.02-.72-8.98-1.08-4.13-.37-7.17-.63-9.29-.77-2.12-.14-6.15-.37-11.97-.67-5.88-.3-10.15-.52-12.83-.67-11-.46-18.3-1.22-22.28-2.34l-.12-.04c-7.58-2.47-11.87-7.81-12.41-15.46v-.22c0-4.85,1.88-9.2,5.59-12.91,6.89-7.06,19.29-10.5,37.87-10.5,7.45,0,15.3.81,23.33,2.4,8.37,1.66,14.84,4.4,19.25,8.15,1.22,1.07,2.56,2.78,4.17,5.33l9.95-2.05c-2.11-3.46-4.61-6.38-7.46-8.72-2.85-2.3-6.55-4.39-11-6.2-9.64-3.68-22.23-5.56-37.36-5.56-16.77,0-29.54,2.27-37.96,6.76-10.28,5.41-15.27,13.47-15.27,24.63,0,3.43.59,6.58,1.76,9.37,1.14,2.73,2.62,4.88,4.39,6.41,2.03,1.75,3.82,3.12,5.31,4.07,1.44.92,2.88,1.64,4.29,2.15,2.49.97,5.65,1.69,9.47,2.18,3.97.51,7.87.88,11.6,1.09,3.8.22,9.18.49,15.99.78,6.98.3,13.21.68,18.51,1.12,8.21.45,14.28,1.22,18.47,2.32,4.53,1.2,8.16,3.32,10.8,6.31,2.59,2.97,3.9,6.36,3.9,10.1,0,6.21-3.19,11.77-9.49,16.54l-.15.11c-8.51,5.67-21.09,8.55-37.39,8.55-13.85,0-25.56-1.87-34.81-5.57-6.53-2.77-11.49-6.6-14.79-11.38-.56-.84-1.09-1.72-1.59-2.64l-10.2,2.27c.07.13.14.24.21.33l.17.24.13.27c.77,1.66,1.96,3.44,3.54,5.29l.09.11c9.43,12.06,28.98,18.18,58.13,18.18,18,0,31.96-3.2,41.49-9.5,8.95-5.96,13.3-13.49,13.3-23,0-10.09-4.53-17.26-13.86-21.92Z"/>
    <path class="cls-1" d="M997.14,255.14l-8.43,3.96v9.94l.08,3.14v79.23h-.08v9.75c0,9.65.29,16.9.87,21.56.53,4.32,1.79,8.03,3.75,11.03,4.36,7.01,12.02,10.39,23.44,10.39,2.52,0,6.4-.38,11.57-1.12v-5.96c-6.19.44-6.48.44-6.66.44-7.46,0-13.2-1.77-17.04-5.28l-.11-.1c-3.28-3.28-5.37-7.48-6.22-12.5-.78-4.58-1.16-11.49-1.16-21.13v-52.24h31.19v-8.35h-31.19v-42.76Z"/>
  </g>
</svg>